<svg width="40" height="40" viewBox="0 0 40 40" fill="none" xmlns="http://www.w3.org/2000/svg">
<path d="M23.0501 31.6666C22.8011 31.6675 22.5551 31.6125 22.3301 31.5058C22.1052 31.3991 21.907 31.2433 21.7501 31.05L13.7001 21.05C13.4549 20.7518 13.3209 20.3777 13.3209 19.9916C13.3209 19.6056 13.4549 19.2315 13.7001 18.9333L22.0334 8.93331C22.3163 8.59295 22.7228 8.37891 23.1636 8.33828C23.6043 8.29764 24.0431 8.43375 24.3834 8.71664C24.7238 8.99954 24.9378 9.40606 24.9785 9.84677C25.0191 10.2875 24.883 10.7263 24.6001 11.0666L17.1501 20L24.3501 28.9333C24.5539 29.178 24.6834 29.4759 24.7232 29.7918C24.763 30.1077 24.7114 30.4284 24.5747 30.7159C24.4379 31.0035 24.2216 31.2458 23.9515 31.4143C23.6813 31.5828 23.3685 31.6704 23.0501 31.6666Z" fill="black"/>
</svg>
