<svg width="30" height="30" viewBox="0 0 30 30" fill="none" xmlns="http://www.w3.org/2000/svg">
<path d="M10.2562 6.055C10.556 5.92023 10.8968 5.90894 11.2048 6.02359C11.5128 6.13823 11.7633 6.36957 11.902 6.66753C12.0407 6.9655 12.0565 7.3061 11.946 7.61561C11.8354 7.92512 11.6074 8.17863 11.3112 8.32125C9.5043 9.16044 8.03802 10.5914 7.15501 12.3773C6.272 14.1633 6.0252 16.1972 6.45543 18.1425C6.88566 20.0878 7.96714 21.8279 9.52093 23.0749C11.0747 24.3219 13.0077 25.0011 15 25C16.9897 24.9995 18.9199 24.3207 20.4718 23.0755C22.0238 21.8304 23.1049 20.0933 23.5368 18.151C23.9686 16.2087 23.7254 14.1772 22.8472 12.3917C21.969 10.6063 20.5083 9.17354 18.7063 8.33C18.5575 8.2604 18.424 8.16219 18.3132 8.04097C18.2024 7.91976 18.1166 7.77791 18.0607 7.62353C17.9477 7.31175 17.9632 6.96786 18.1037 6.6675C18.2443 6.36714 18.4984 6.13493 18.8102 6.02193C19.122 5.90894 19.4659 5.92444 19.7662 6.065C21.7042 6.97073 23.3435 8.41041 24.492 10.2151C25.6404 12.0198 26.2503 14.1146 26.25 16.2538C26.25 22.4663 21.2125 27.5 15 27.5C8.7875 27.5 3.75 22.465 3.75 16.255C3.74957 14.1115 4.36178 12.0126 5.51449 10.2054C6.6672 8.39831 8.3124 6.95828 10.2562 6.055V6.055ZM15 2.5C15.3062 2.50004 15.6017 2.61245 15.8305 2.81589C16.0593 3.01934 16.2054 3.29969 16.2413 3.60375L16.25 3.75V12.5C16.25 12.8187 16.1282 13.1254 15.9096 13.3573C15.691 13.5892 15.392 13.7288 15.0739 13.7477C14.7557 13.7665 14.4424 13.6631 14.198 13.4586C13.9535 13.2541 13.7964 12.964 13.7587 12.6475L13.75 12.5V3.75C13.75 3.41848 13.8817 3.10054 14.1161 2.86612C14.3505 2.6317 14.6685 2.5 15 2.5V2.5Z" fill="black"/>
</svg>
