<svg width="128" height="41" viewBox="0 0 128 41" fill="none" xmlns="http://www.w3.org/2000/svg">
<path d="M23.0501 31.6666C22.8011 31.6675 22.5551 31.6125 22.3301 31.5058C22.1052 31.3991 21.907 31.2433 21.7501 31.05L13.7001 21.05C13.4549 20.7518 13.3209 20.3777 13.3209 19.9916C13.3209 19.6056 13.4549 19.2315 13.7001 18.9333L22.0334 8.93331C22.3163 8.59295 22.7228 8.37891 23.1636 8.33828C23.6043 8.29764 24.0431 8.43375 24.3834 8.71664C24.7238 8.99954 24.9378 9.40606 24.9785 9.84677C25.0191 10.2875 24.883 10.7263 24.6001 11.0666L17.1501 20L24.3501 28.9333C24.5539 29.178 24.6834 29.4759 24.7232 29.7918C24.763 30.1077 24.7114 30.4284 24.5747 30.7159C24.4379 31.0035 24.2216 31.2458 23.9515 31.4143C23.6813 31.5828 23.3685 31.6704 23.0501 31.6666Z" fill="black" fill-opacity="0.8"/>
<path d="M51.6557 23.225C51.819 22.9917 52.0523 22.5833 52.3557 22C53.1023 20.67 53.5457 20.005 53.6857 20.005C53.849 20.005 53.9307 20.0983 53.9307 20.285C53.9307 21.4283 53.3357 22.875 52.1457 24.625C49.999 27.775 47.1407 29.35 43.5707 29.35C42.5673 29.35 41.6457 29.1167 40.8057 28.65C39.9657 28.1833 39.3007 27.5883 38.8107 26.865C37.8073 25.395 37.3057 23.855 37.3057 22.245C37.3057 18.185 38.3557 14.9183 40.4557 12.445C42.579 9.94833 45.0873 8.7 47.9807 8.7C49.0773 8.7 49.9757 9.02667 50.6757 9.68C51.3757 10.31 51.7257 11.115 51.7257 12.095C51.7257 13.075 51.4807 13.985 50.9907 14.825C50.5007 15.665 49.9057 16.085 49.2057 16.085C48.529 16.085 48.1907 15.8983 48.1907 15.525C48.1907 15.105 48.4123 14.6267 48.8557 14.09C49.3223 13.5533 49.5557 13.0167 49.5557 12.48C49.5557 10.8233 48.669 9.995 46.8957 9.995C45.1457 9.995 43.559 11.1733 42.1357 13.53C40.7123 15.8867 40.0007 18.3133 40.0007 20.81C40.0007 22.5367 40.4907 24.0767 41.4707 25.43C42.4507 26.76 43.8273 27.425 45.6007 27.425C47.7007 27.425 49.719 26.025 51.6557 23.225ZM54.7745 19.865L56.6995 19.655C56.8862 19.655 57.0495 19.76 57.1895 19.97C57.3295 20.18 57.3995 20.4017 57.3995 20.635C57.3995 20.8683 57.3178 21.6617 57.1545 23.015C57.0145 24.3683 56.9445 25.4417 56.9445 26.235C56.9445 27.005 57.0145 27.39 57.1545 27.39C57.5512 27.3667 58.0995 26.8767 58.7995 25.92C59.4995 24.94 60.1878 23.6917 60.8645 22.175C61.5645 20.6583 61.9845 19.9 62.1245 19.9C62.2878 19.9 62.3695 19.9933 62.3695 20.18C62.3695 20.8333 62.0312 21.8717 61.3545 23.295C59.5112 27.215 57.9595 29.175 56.6995 29.175C55.7895 29.175 55.1012 28.9883 54.6345 28.615C54.4712 28.4517 54.3895 27.4367 54.3895 25.57C54.3895 23.7033 54.5878 22.105 54.9845 20.775C53.6312 20.775 52.6862 20.3433 52.1495 19.48C51.8695 19.0367 51.7295 18.535 51.7295 17.975C51.7295 17.415 51.8462 16.925 52.0795 16.505C52.3128 16.085 52.6395 15.875 53.0595 15.875C53.5028 15.875 53.8995 16.1083 54.2495 16.575C54.6228 17.0183 54.8095 17.52 54.8095 18.08C54.8095 18.64 54.6462 19.2 54.3195 19.76C54.4128 19.83 54.5645 19.865 54.7745 19.865ZM70.4854 29.175C69.5754 29.175 68.8871 28.9883 68.4204 28.615C68.2571 28.4517 68.1754 28.0433 68.1754 27.39C68.1754 26.7133 68.1987 25.815 68.2454 24.695C67.6387 26.2117 67.0321 27.3433 66.4254 28.09C65.8421 28.8133 65.0837 29.175 64.1504 29.175C63.2171 29.175 62.4004 28.7433 61.7004 27.88C61.0004 26.9933 60.6504 25.6167 60.6504 23.75C60.6504 21.86 61.1754 20.1917 62.2254 18.745C63.2987 17.2983 64.6987 16.575 66.4254 16.575C67.1721 16.575 68.0121 17.065 68.9454 18.045C69.1321 17.7883 69.4587 17.485 69.9254 17.135C70.4154 16.7617 70.8237 16.575 71.1504 16.575C71.5004 16.575 71.6754 17.0183 71.6754 17.905C71.6754 18.1383 71.6054 18.5933 71.4654 19.27C71.3487 19.9467 71.2087 20.4367 71.0454 20.74C70.8354 21.2767 70.7304 23.1783 70.7304 26.445C70.7304 27.075 70.8004 27.39 70.9404 27.39C71.3371 27.3667 71.8854 26.8767 72.5854 25.92C73.2854 24.94 73.9737 23.6917 74.6504 22.175C75.3504 20.6583 75.7704 19.9 75.9104 19.9C76.0737 19.9 76.1554 19.9933 76.1554 20.18C76.1554 20.8333 75.8171 21.8717 75.1404 23.295C73.2971 27.215 71.7454 29.175 70.4854 29.175ZM66.2154 17.975C65.5621 17.975 64.8621 18.465 64.1154 19.445C63.3921 20.4017 63.0304 21.5333 63.0304 22.84C63.0304 24.1467 63.2171 25.22 63.5904 26.06C63.9871 26.9 64.5004 27.32 65.1304 27.32C65.9004 27.32 67.0321 25.395 68.5254 21.545C68.5487 21.3583 68.5721 21.0433 68.5954 20.6C68.6421 20.1333 68.6771 19.7833 68.7004 19.55C68.4904 19.1767 68.1171 18.8267 67.5804 18.5C67.0671 18.15 66.6121 17.975 66.2154 17.975ZM78.4238 27.46C79.2638 27.46 79.9988 27.0283 80.6288 26.165C81.2588 25.2783 81.7255 24.205 82.0288 22.945C81.1888 22.6883 80.5472 22.245 80.1038 21.615C79.6605 20.9617 79.4388 20.215 79.4388 19.375C79.4388 18.535 79.6488 17.8 80.0688 17.17C80.5122 16.54 81.1422 16.225 81.9588 16.225C82.4488 16.225 82.8222 16.54 83.0788 17.17C83.3355 17.7767 83.4638 18.465 83.4638 19.235C83.4638 20.005 83.4055 20.775 83.2888 21.545C83.6388 21.685 84.0122 21.755 84.4088 21.755C85.3188 21.755 86.1938 21.335 87.0338 20.495C87.4538 20.075 87.7338 19.865 87.8738 19.865C88.0372 19.865 88.1188 19.9817 88.1188 20.215C88.1188 20.4483 87.9672 20.7283 87.6638 21.055C86.4272 22.4317 84.8638 23.12 82.9738 23.12C82.5305 24.8233 81.8422 26.2583 80.9088 27.425C79.9755 28.5917 78.8322 29.175 77.4788 29.175C76.6855 29.175 76.0322 28.8367 75.5188 28.16C74.6555 27.0633 74.2238 25.4533 74.2238 23.33C74.2238 22.6067 74.2822 21.6733 74.3988 20.53C74.5155 19.3867 74.6438 18.6867 74.7838 18.43C74.9472 18.1733 75.3205 17.8583 75.9038 17.485C76.5105 17.1117 76.9305 16.925 77.1638 16.925C77.5138 16.925 77.6888 17.135 77.6888 17.555C77.6888 18.745 77.3855 20.04 76.7788 21.44C76.7788 23.0967 76.9072 24.52 77.1638 25.71C77.4438 26.8767 77.8638 27.46 78.4238 27.46ZM81.6088 17.555C81.4222 17.555 81.3288 17.94 81.3288 18.71C81.3288 19.48 81.6788 20.215 82.3788 20.915C82.4255 20.635 82.4488 20.355 82.4488 20.075C82.4488 18.395 82.1688 17.555 81.6088 17.555ZM87.5802 11.885C87.5802 11.465 87.8018 11.1033 88.2452 10.8C88.6885 10.4967 89.0852 10.345 89.4352 10.345C90.0652 10.345 90.3802 10.7067 90.3802 11.43C90.3802 12.1533 90.1935 12.7833 89.8202 13.32C89.4468 13.8333 88.9218 14.09 88.2452 14.09C87.8018 14.09 87.5802 13.355 87.5802 11.885ZM88.5952 29.175C87.6852 29.175 86.9968 28.9883 86.5302 28.615C86.3668 28.4517 86.2852 27.8683 86.2852 26.865C86.2852 25.8617 86.3552 24.1933 86.4952 21.86C86.6585 19.5033 86.7985 18.2317 86.9152 18.045C87.0318 17.8583 87.3935 17.5083 88.0002 16.995C88.6068 16.4817 89.0735 16.225 89.4002 16.225C89.7502 16.225 89.9252 16.6683 89.9252 17.555C89.9252 17.7883 89.8552 18.2433 89.7152 18.92C89.5985 19.5967 89.4585 20.0867 89.2952 20.39C88.9918 21.16 88.8402 23.1783 88.8402 26.445C88.8402 27.075 88.9102 27.39 89.0502 27.39C89.4468 27.3667 89.9952 26.8767 90.6952 25.92C91.3952 24.94 92.0835 23.6917 92.7602 22.175C93.4602 20.6583 93.8802 19.9 94.0202 19.9C94.1835 19.9 94.2652 19.9933 94.2652 20.18C94.2652 20.8333 93.9268 21.8717 93.2502 23.295C91.4068 27.215 89.8552 29.175 88.5952 29.175ZM95.1333 27.11L95.1683 28.195C95.1683 28.8483 94.9817 29.175 94.6083 29.175C94.0483 29.175 93.5117 29.105 92.9983 28.965C92.485 28.8017 92.2283 28.5917 92.2283 28.335C92.2283 28.055 92.2867 27.1333 92.4033 25.57C92.5433 23.9833 92.6133 22.7933 92.6133 22V19.935C92.6133 18.815 92.73 18.1383 92.9633 17.905C93.1967 17.6717 93.605 17.3333 94.1883 16.89C94.795 16.4467 95.2267 16.225 95.4833 16.225C95.7633 16.225 95.9383 16.2717 96.0083 16.365C96.0783 16.4583 96.1133 16.6333 96.1133 16.89C96.1133 18.1267 95.88 19.2933 95.4133 20.39C95.2967 21.72 95.2383 22.6417 95.2383 23.155C95.3317 23.015 95.8217 22.2217 96.7083 20.775C97.595 19.3283 98.3417 18.2667 98.9483 17.59C99.5783 16.9133 100.138 16.575 100.628 16.575C101.118 16.575 101.55 16.7383 101.923 17.065C102.32 17.3917 102.518 17.8 102.518 18.29C102.518 19.3167 102.402 20.8333 102.168 22.84C101.958 24.8233 101.853 26.0833 101.853 26.62C101.853 27.1333 101.923 27.39 102.063 27.39C102.46 27.3667 103.008 26.8767 103.708 25.92C104.408 24.94 105.097 23.6917 105.773 22.175C106.473 20.6583 106.893 19.9 107.033 19.9C107.197 19.9 107.278 19.9933 107.278 20.18C107.278 20.8333 106.94 21.8717 106.263 23.295C104.42 27.215 102.868 29.175 101.608 29.175C100.698 29.175 100.01 28.9883 99.5433 28.615C99.38 28.4517 99.2983 28.0317 99.2983 27.355C99.2983 26.655 99.3567 25.535 99.4733 23.995C99.6133 22.4317 99.6833 21.265 99.6833 20.495C99.6833 19.725 99.5433 19.34 99.2633 19.34C99.0067 19.34 98.3067 20.145 97.1633 21.755C96.02 23.3417 95.4133 24.3567 95.3433 24.8C95.2033 25.6167 95.1333 26.3867 95.1333 27.11ZM113.407 23.645C112.683 25.5583 112.007 26.9583 111.377 27.845C110.77 28.7317 109.965 29.175 108.962 29.175C107.958 29.175 107.107 28.7433 106.407 27.88C105.73 27.0167 105.392 25.64 105.392 23.75C105.392 21.86 105.917 20.1917 106.967 18.745C108.04 17.2983 109.44 16.575 111.167 16.575C111.517 16.575 111.937 16.7267 112.427 17.03C112.917 17.31 113.348 17.66 113.722 18.08C113.792 17.8467 114.13 17.485 114.737 16.995C115.343 16.4817 115.81 16.225 116.137 16.225C116.487 16.225 116.662 16.7267 116.662 17.73C116.662 18.7333 116.452 19.62 116.032 20.39C115.798 21.9533 115.67 23.4 115.647 24.73C117.933 21.8367 119.147 20.3083 119.287 20.145C119.45 19.9817 119.59 19.9 119.707 19.9C119.94 19.9 120.057 20.0167 120.057 20.25C120.057 20.39 120.01 20.5417 119.917 20.705C119.17 21.8017 117.7 23.7267 115.507 26.48C115.367 29.2567 115.273 31.1467 115.227 32.15C115.11 35.1133 114.69 37.19 113.967 38.38C113.267 39.5933 112.007 40.2 110.187 40.2C109.393 40.2 108.647 39.955 107.947 39.465C107.27 38.9983 106.932 38.17 106.932 36.98C106.932 35.8133 107.375 34.6117 108.262 33.375C109.172 32.1383 110.817 30.2367 113.197 27.67L113.407 23.645ZM110.957 17.835C110.303 17.835 109.603 18.3483 108.857 19.375C108.133 20.3783 107.772 21.545 107.772 22.875C107.772 24.1817 107.958 25.255 108.332 26.095C108.728 26.9117 109.218 27.32 109.802 27.32C110.385 27.32 110.945 26.8417 111.482 25.885C112.018 24.9283 112.707 23.2833 113.547 20.95C113.593 20.1567 113.617 19.655 113.617 19.445C113.43 19.095 113.045 18.745 112.462 18.395C111.878 18.0217 111.377 17.835 110.957 17.835ZM113.092 29.315C110.432 32.185 109.102 34.4833 109.102 36.21C109.102 37.0033 109.242 37.6567 109.522 38.17C109.802 38.6833 110.187 38.94 110.677 38.94C111.423 38.94 111.948 38.5317 112.252 37.715C112.555 36.8983 112.777 35.2417 112.917 32.745L113.092 29.315ZM123.594 18.29L123.664 17.765C123.664 17.345 123.419 17.135 122.929 17.135C122.462 17.135 122.007 17.45 121.564 18.08C121.121 18.6867 120.899 19.1883 120.899 19.585C120.899 19.9817 120.922 20.2967 120.969 20.53C121.016 20.7633 121.062 20.9617 121.109 21.125C121.179 21.265 121.284 21.44 121.424 21.65C121.564 21.86 121.669 22.0117 121.739 22.105L122.124 22.595C122.287 22.8283 122.404 22.98 122.474 23.05C123.687 22.0467 125.134 20.9267 126.814 19.69C126.907 19.62 127.012 19.585 127.129 19.585C127.362 19.585 127.479 19.7133 127.479 19.97C127.479 20.2267 127.374 20.425 127.164 20.565C125.671 21.5217 124.259 22.56 122.929 23.68C123.442 24.4267 123.699 25.2433 123.699 26.13C123.699 27.0167 123.361 27.775 122.684 28.405C122.007 29.035 121.144 29.35 120.094 29.35C119.044 29.35 118.519 28.8483 118.519 27.845C118.519 27.1217 119.289 26.0133 120.829 24.52C120.712 24.38 120.502 24.1583 120.199 23.855C119.896 23.5283 119.662 23.2717 119.499 23.085C119.359 22.8983 119.184 22.6533 118.974 22.35C118.601 21.7667 118.414 21.1367 118.414 20.46C118.414 19.0833 118.857 17.975 119.744 17.135C120.631 16.2717 121.576 15.84 122.579 15.84C123.209 15.84 123.699 16.015 124.049 16.365C124.399 16.6917 124.574 17.03 124.574 17.38C124.574 18.1733 124.387 18.57 124.014 18.57C123.734 18.57 123.594 18.4767 123.594 18.29ZM121.354 25.185C120.421 26.1183 119.954 26.8767 119.954 27.46C119.954 28.02 120.246 28.3 120.829 28.3C121.179 28.3 121.471 28.16 121.704 27.88C122.217 27.18 122.101 26.2817 121.354 25.185Z" fill="black" fill-opacity="0.8"/>
</svg>
