<svg width="22" height="22" viewBox="0 0 22 22" fill="none" xmlns="http://www.w3.org/2000/svg">
<path d="M19.668 9.30783C19.7808 9.91192 19.8422 10.5435 19.8422 11.2026C19.8422 16.3579 16.3918 20.0237 11.1806 20.0237C9.99548 20.024 8.82191 19.7909 7.72695 19.3375C6.63198 18.8842 5.63708 18.2195 4.79908 17.3815C3.96109 16.5435 3.29642 15.5486 2.84307 14.4536C2.38971 13.3587 2.15656 12.1851 2.15692 11C2.15656 9.81489 2.38971 8.64133 2.84307 7.54637C3.29642 6.4514 3.96109 5.4565 4.79908 4.6185C5.63708 3.7805 6.63198 3.11584 7.72695 2.66248C8.82191 2.20913 9.99548 1.97597 11.1806 1.97633C13.6171 1.97633 15.653 2.87283 17.215 4.3285L14.6713 6.87225V6.86583C13.7243 5.96383 12.5226 5.50092 11.1806 5.50092C8.20325 5.50092 5.78325 8.01625 5.78325 10.9945C5.78325 13.9718 8.20325 16.4927 11.1806 16.4927C13.882 16.4927 15.7208 14.9481 16.0985 12.8269H11.1806V9.30783H19.6689H19.668Z" fill="#333333"/>
</svg>
