<svg width="20" height="20" viewBox="0 0 20 20" fill="none" xmlns="http://www.w3.org/2000/svg">
<path d="M11.6667 11.8767V13.6183C10.9125 13.3517 10.1053 13.2699 9.31288 13.3798C8.52048 13.4898 7.76604 13.7882 7.1129 14.2502C6.45976 14.7121 5.92699 15.324 5.55934 16.0345C5.19169 16.745 4.99989 17.5334 5.00004 18.3333L3.33337 18.3325C3.33312 17.3149 3.56581 16.3108 4.01362 15.397C4.46144 14.4832 5.11249 13.6841 5.91689 13.0609C6.72129 12.4376 7.65769 12.0068 8.65433 11.8014C9.65098 11.596 10.6814 11.6214 11.6667 11.8758V11.8767ZM10 10.8333C7.23754 10.8333 5.00004 8.59584 5.00004 5.83334C5.00004 3.07084 7.23754 0.833344 10 0.833344C12.7625 0.833344 15 3.07084 15 5.83334C15 8.59584 12.7625 10.8333 10 10.8333ZM10 9.16668C11.8417 9.16668 13.3334 7.67501 13.3334 5.83334C13.3334 3.99168 11.8417 2.50001 10 2.50001C8.15837 2.50001 6.66671 3.99168 6.66671 5.83334C6.66671 7.67501 8.15837 9.16668 10 9.16668ZM14.8275 16.595L17.7734 13.6492L18.9525 14.8275L14.8275 18.9525L11.8809 16.0058L13.06 14.8275L14.8267 16.595H14.8275Z" fill="black"/>
</svg>
