<svg width="25" height="25" viewBox="0 0 25 25" fill="none" xmlns="http://www.w3.org/2000/svg">
<path d="M14.5969 12.0359C14.5969 10.4922 17.1047 10.3578 17.1047 7.33984C17.1047 5.15469 15.5852 4.10781 15.4297 4.01328H16.9437L18.457 3.125H13.5531C8.56328 3.125 7.76406 6.61641 7.76406 7.77344C7.76406 9.49687 9.1125 11.6391 11.8258 11.6391C12.0727 11.6391 12.3352 11.6234 12.6133 11.5938C12.5664 11.7219 12.3711 12.1609 12.3711 12.5578C12.3711 13.3883 12.9023 13.9156 13.0859 14.2367C10.1172 14.2094 6.54297 15.4969 6.54297 18.3617C6.54297 19.4086 7.44297 21.875 11.6727 21.875C16.4977 21.875 17.9594 18.8961 17.9594 17.2266C17.9563 14.0383 14.5969 13.5102 14.5969 12.0359V12.0359ZM12.9578 10.9711C11.2703 10.9711 9.84531 8.84688 9.84531 6.57656C9.84531 5.90234 10.1688 3.94297 12.0359 3.94297C14.4406 3.94297 15.0266 7.50703 15.0266 8.47813C15.0266 8.70391 15.1852 10.9711 12.9578 10.9711V10.9711ZM12.8422 20.8438C11.2945 20.8438 8.62422 20.1844 8.62422 17.8406C8.62422 17.0281 9.09766 14.9078 13.2047 14.9078C13.4156 14.9078 13.5984 14.9172 13.7539 14.932C14.6086 15.5703 16.3789 16.4914 16.3789 18.1883C16.3789 18.9578 15.9211 20.8438 12.8422 20.8438V20.8438Z" fill="#333333"/>
</svg>
